P1
4 4
0100
1111
0010
0110
